#!OML:ASF F:\VICON\USERDATA\INSTALL\rory3\rory3.ASF
:FULLY-SPECIFIED
:DEGREES
2362
root 1.0828 16.6823 -0.335737 -9.36116 -12.3932 1.07915
lowerback 1.64471 1.77338 0.483985
upperback 3.84626 2.16807 7.68542
thorax 2.78282 0.96911 7.78911
lowerneck -11.4713 -10.851 -13.3972
upperneck 28.8824 -16.4857 11.7302
head 13.899 -7.39977 4.14245
rclavicle 1.90833e-014 7.63333e-014
rhumerus 43.0681 14.5352 -44.0942
rradius 66.6555
rwrist 27.8683
rhand 14.7269 22.1292
rfingers 7.12502
rthumb 39.5945 -3.2179
lclavicle 1.90833e-014 7.63333e-014
lhumerus 51.7897 3.6036 -0.0528355
lradius 64.4534
lwrist 6.19393
lhand 14.1895 25.6616
lfingers 7.12502
lthumb 39.0882 51.1563
rfemur -4.70443 5.91482 13.1208
rtibia 34.1024
rfoot -26.2939 4.3188
rtoes -25.2706
lfemur -0.251417 -1.71771 -23.8984
ltibia 35.0387
lfoot -24.3395 8.83857
ltoes -16.1188
2363
root 1.11837 16.6752 -0.334395 -9.48395 -12.492 1.37209
lowerback 1.74187 1.66554 0.432391
upperback 3.9125 2.01751 7.87134
thorax 2.81045 0.886156 8.02112
lowerneck -11.4688 -10.8268 -13.2964
upperneck 28.8496 -16.4541 11.6764
head 13.8614 -7.38103 4.11089
rclavicle -1.64991e-014 -5.725e-014
rhumerus 42.4952 15.0488 -44.3696
rradius 66.6293
rwrist 27.6566
rhand 15.4743 22.7903
rfingers 7.12502
rthumb 40.2979 -2.34514
lclavicle -1.64991e-014 -5.725e-014
lhumerus 51.4037 3.68462 -1.25844
lradius 64.5045
lwrist 6.01581
lhand 14.1232 25.4335
lfingers 7.12502
lthumb 39.0257 50.9462
rfemur -4.78657 5.94905 12.6573
rtibia 34.256
rfoot -26.3856 4.37138
rtoes -25.3433
lfemur -0.24487 -1.51461 -24.323
ltibia 35.0904
lfoot -24.2867 8.9949
ltoes -16.4715
2364
root 1.15143 16.667 -0.332624 -9.611 -12.6152 1.66096
lowerback 1.91529 1.61413 0.37565
upperback 3.89777 1.95247 8.05906
thorax 2.69944 0.850521 8.25296
lowerneck -11.2533 -10.8107 -13.2504
upperneck 28.7652 -16.4513 11.6579
head 13.7703 -7.38752 4.10612
rclavicle 9.24349e-015 1.90833e-014
rhumerus 41.7275 15.5205 -44.6463
rradius 66.5293
rwrist 27.7126
rhand 15.7592 23.4994
rfingers 7.12502
rthumb 40.5658 -1.55346
lclavicle 9.24349e-015 1.90833e-014
lhumerus 51.1654 3.60901 -2.22538
lradius 64.5146
lwrist 5.74742
lhand 14.0587 25.2205
lfingers 7.12502
lthumb 38.9649 50.7506
rfemur -4.88241 6.08058 12.225
rtibia 34.4506
rfoot -26.4995 4.42252
rtoes -25.4495
lfemur -0.205901 -1.27967 -24.7247
ltibia 35.0956
lfoot -24.2706 9.01503
ltoes -16.2915
2365
root 1.18381 16.6591 -0.333823 -9.67937 -12.7832 1.84509
lowerback 2.14632 1.59385 0.523225
upperback 3.83543 1.93741 8.17672
thorax 2.50749 0.849388 8.28528
lowerneck -11.0756 -10.803 -13.1388
upperneck 28.7024 -16.5101 11.7391
head 13.7116 -7.40064 4.11752
rclavicle 5.26779e-015 5.725e-014
rhumerus 40.8877 15.9253 -45.0993
rradius 66.2824
rwrist 28.1094
rhand 15.6104 23.8646
rfingers 7.12502
rthumb 40.4259 -1.23153
lclavicle 5.26779e-015 5.725e-014
lhumerus 51.0068 3.48745 -3.27111
lradius 64.6129
lwrist 5.7277
lhand 13.9939 24.904
lfingers 7.12502
lthumb 38.9038 50.4515
rfemur -5.03497 6.17016 11.9079
rtibia 34.6291
rfoot -26.6068 4.4855
rtoes -25.7326
lfemur -0.228204 -0.95259 -24.9684
ltibia 35.1126
lfoot -24.2453 8.85099
ltoes -15.9229
2366
root 1.21407 16.6516 -0.333474 -9.69637 -12.9358 2.05715
lowerback 2.21704 1.55823 0.711594
upperback 3.84511 1.89067 8.21128
thorax 2.48915 0.829715 8.21152
lowerneck -11.0902 -10.7896 -12.9934
upperneck 28.6527 -16.5888 11.9454
head 13.7146 -7.39554 4.16043
rclavicle 1.43125e-014 1.27222e-014
rhumerus 40.3273 16.2506 -45.4687
rradius 65.9841
rwrist 28.362
rhand 15.3208 23.822
rfingers 7.12502
rthumb 40.1535 -1.35761
lclavicle 1.43125e-014 1.27222e-014
lhumerus 50.8536 3.49625 -4.38174
lradius 64.7168
lwrist 5.77188
lhand 14.0702 24.5766
lfingers 7.12502
lthumb 38.9758 50.1036
rfemur -5.24115 6.23506 11.563
rtibia 34.7862
rfoot -26.3705 4.54305
rtoes -26.1121
lfemur -0.306859 -0.632705 -25.2396
ltibia 35.1378
lfoot -24.2386 8.91978
ltoes -16.8251
2367
root 1.24326 16.6461 -0.332334 -9.7037 -13.059 2.09464
lowerback 2.29192 1.44815 0.810494
upperback 3.87137 1.73696 8.49027
thorax 2.49241 0.748449 8.46059
lowerneck -11.2063 -10.7562 -12.9931
upperneck 28.7016 -16.5125 11.8734
head 13.7395 -7.36309 4.14232
rclavicle 1.02374e-014 3.18055e-015
rhumerus 40.1071 16.7485 -45.3107
rradius 65.8029
rwrist 28.3623
rhand 15.2021 23.6824
rfingers 7.12502
rthumb 40.0418 -1.53099
lclavicle 1.02374e-014 3.18055e-015
lhumerus 50.4361 3.45443 -5.21305
lradius 64.7686
lwrist 5.9518
lhand 13.9422 24.6817
lfingers 7.12502
lthumb 38.8551 50.2431
rfemur -5.35805 6.37533 11.4338
rtibia 34.9056
rfoot -26.1518 4.57628
rtoes -26.5149
lfemur -0.343851 -0.388624 -25.3243
ltibia 35.1792
lfoot -24.2609 8.73145
ltoes -16.0995
2368
root 1.27087 16.6423 -0.331927 -9.70612 -13.2368 2.07783
lowerback 2.44526 1.36021 0.976838
upperback 3.83995 1.62314 8.74946
thorax 2.38849 0.692396 8.6448
lowerneck -11.2188 -10.7051 -12.9087
upperneck 28.7689 -16.4339 11.7671
head 13.7366 -7.32978 4.10335
rclavicle -1.3418e-014 2.54444e-014
rhumerus 39.6545 17.1769 -45.2803
rradius 65.7458
rwrist 28.3183
rhand 15.2367 23.3951
rfingers 7.12502
rthumb 40.0744 -1.80846
lclavicle -1.3418e-014 2.54444e-014
lhumerus 50.091 3.31969 -5.89379
lradius 64.8511
lwrist 5.96831
lhand 13.7792 24.7583
lfingers 7.12502
lthumb 38.7013 50.3632
rfemur -5.48299 6.57179 11.3931
rtibia 35.045
rfoot -26.4664 4.52126
rtoes -26.4382
lfemur -0.359337 -0.0920306 -25.3357
ltibia 35.1991
lfoot -24.3425 8.63586
ltoes -16.0688
2369
root 1.29857 16.637 -0.331016 -9.73625 -13.4165 2.16631
lowerback 2.57099 1.27659 1.17126
upperback 3.82062 1.51657 8.87435
thorax 2.31521 0.642166 8.66609
lowerneck -11.1991 -10.6569 -12.7576
upperneck 28.8704 -16.4089 11.7293
head 13.7514 -7.30609 4.07318
rclavicle 3.24019e-014 1.145e-013
rhumerus 39.228 17.4827 -45.4116
rradius 65.6131
rwrist 28.2871
rhand 15.1056 23.1994
rfingers 7.12502
rthumb 39.951 -2.0414
lclavicle 3.24019e-014 1.145e-013
lhumerus 49.8176 3.21163 -6.65133
lradius 64.9236
lwrist 5.95952
lhand 13.8704 24.8257
lfingers 7.12502
lthumb 38.7873 50.4063
rfemur -5.60127 6.79752 11.2307
rtibia 35.1912
rfoot -26.9674 4.52641
rtoes -25.6415
lfemur -0.384745 0.244629 -25.4529
ltibia 35.2324
lfoot -24.4235 8.55473
ltoes -16.0851
2370
root 1.3247 16.6298 -0.330285 -9.78942 -13.5394 2.48383
lowerback 2.60293 1.18875 1.08839
upperback 3.85189 1.3936 8.98089
thorax 2.34415 0.574209 8.83485
lowerneck -11.2161 -10.6328 -12.7466
upperneck 28.8957 -16.3669 11.687
head 13.7529 -7.28968 4.06279
rclavicle 5.96354e-016 1.65389e-013
rhumerus 38.9203 17.8096 -45.4975
rradius 65.5321
rwrist 28.2761
rhand 14.668 22.8388
rfingers 7.12502
rthumb 39.539 -2.52468
lclavicle 5.96354e-016 1.65389e-013
lhumerus 49.5236 3.20329 -7.14888
lradius 64.9264
lwrist 5.91567
lhand 14.2433 24.8359
lfingers 7.12502
lthumb 39.1389 50.316
rfemur -5.77519 6.93145 10.7918
rtibia 35.3698
rfoot -27.2196 4.68059
rtoes -24.8265
lfemur -0.456189 0.568537 -25.8214
ltibia 35.2664
lfoot -24.4418 8.51529
ltoes -16.1221
2371
root 1.34972 16.622 -0.330274 -9.80614 -13.6506 2.68438
lowerback 2.6163 1.11603 1.16978
upperback 3.87516 1.29221 9.05009
thorax 2.37664 0.522067 8.86571
lowerneck -11.2504 -10.6457 -12.6327
upperneck 28.9513 -16.4101 11.6496
head 13.7749 -7.2971 4.02095
rclavicle -1.44616e-014 6.36111e-015
rhumerus 38.4187 18.1428 -45.7199
rradius 65.543
rwrist 28.318
rhand 14.2042 22.8232
rfingers 7.12502
rthumb 39.102 -2.66752
lclavicle -1.44616e-014 6.36111e-015
lhumerus 49.3748 3.21605 -7.53962
lradius 64.8623
lwrist 5.92759
lhand 14.5503 24.7334
lfingers 7.12502
lthumb 39.4281 50.1294
rfemur -5.9695 7.07854 10.502
rtibia 35.5632
rfoot -27.2794 4.62506
rtoes -24.9313
lfemur -0.548114 0.826278 -26.0714
ltibia 35.3043
lfoot -24.4406 8.43733
ltoes -15.9621
2372
root 1.3746 16.6138 -0.329867 -9.84407 -13.7384 2.78467
lowerback 2.70095 1.04248 1.39668
upperback 3.87031 1.19827 9.10293
thorax 2.34126 0.479542 8.79013
lowerneck -11.2107 -10.6433 -12.6172
upperneck 28.9974 -16.4616 11.7503
head 13.8047 -7.30686 4.0523
rclavicle -1.18774e-014 9.22361e-014
rhumerus 37.9069 18.4029 -45.9374
rradius 65.528
rwrist 28.3346
rhand 14.6414 23.2736
rfingers 7.12502
rthumb 39.514 -2.09725
lclavicle -1.18774e-014 9.22361e-014
lhumerus 49.3098 3.22764 -7.89838
lradius 64.8589
lwrist 5.92677
lhand 14.6662 24.6217
lfingers 7.12502
lthumb 39.5374 49.9856
rfemur -6.09881 7.25788 10.331
rtibia 35.7642
rfoot -27.3807 4.55423
rtoes -25.13
lfemur -0.566204 1.04632 -26.2108
ltibia 35.3259
lfoot -24.479 8.33854
ltoes -16.0124
